# xmcd
# 
# Track frame offsets:
#     151
#     17543
#     34579
#     48440
#     59805
#     74819
#     90220
#     104461
#     123862
#     137444
#     150313
#     190059
# 
# Disc length: 2701
# 
# Revision: 0
# Processed by: cddbd v1.5.2PL0 Copyright (c) Steve Scherf et al.
# Submitted via: fre:ac v1.0.31
# 
DISCID=970a8b0c
DTITLE=Climax Blues Band - Climax Chicago Blues Band
DYEAR=1969
DGENRE=Rock/Pop
TTITLE0=Mean Old World
TTITLE1=Insurance
TTITLE2=Going Down This Road
TTITLE3=You've Been Drinking
TTITLE4=Don't Start Me Talking
TTITLE5=Wee Baby Blues
TTITLE6=Twenty Past One
TTITLE7=A Stranger In Your Town
TTITLE8=How Many More Years
TTITLE9=Looking For My Baby
TTITLE10=And Lonely
TTITLE11=The Entertainer
EXTD=YEAR: 1969
EXTT0=
EXTT1=
EXTT2=
EXTT3=
EXTT4=
EXTT5=
EXTT6=
EXTT7=
EXTT8=
EXTT9=
EXTT10=
EXTT11=
PLAYORDER=
